<?xml version="1.0" encoding="UTF-8" standalone="no"?>
<svg
   xmlns:dc="http://purl.org/dc/elements/1.1/"
   xmlns:cc="http://creativecommons.org/ns#"
   xmlns:rdf="http://www.w3.org/1999/02/22-rdf-syntax-ns#"
   xmlns:svg="http://www.w3.org/2000/svg"
   xmlns="http://www.w3.org/2000/svg"
   xmlns:xlink="http://www.w3.org/1999/xlink"
   id="svg3968"
   xml:space="preserve"
   enable-background="new 0 0 86 86"
   viewBox="0 0 86 86"
   height="86px"
   width="86px"
   y="0px"
   x="0px"
   version="1.1"><metadata
     id="metadata3991"><rdf:RDF><cc:Work
         rdf:about=""><dc:format>image/svg+xml</dc:format><dc:type
           rdf:resource="http://purl.org/dc/dcmitype/StillImage" /><dc:title></dc:title></cc:Work></rdf:RDF></metadata><defs
     id="defs3989"><linearGradient
       id="SVGID_1_"
       gradientUnits="userSpaceOnUse"
       x1="79.2383"
       y1="91.3279"
       x2="6.7619"
       y2="18.8514"><stop
         offset="0"
         style="stop-color:#018446;stop-opacity:1"
         id="stop3973" /><stop
         offset="0.99510002"
         style="stop-color:#29ba95;stop-opacity:1"
         id="stop3975" /></linearGradient><linearGradient
       y2="-0.94222933"
       x2="43.229267"
       y1="86.923233"
       x1="43.24839"
       gradientUnits="userSpaceOnUse"
       id="linearGradient4770"
       xlink:href="#SVGID_1_" /></defs><g
     display="none"
     id="Layer_2" /><path
     d="M 43,0.3 C 19.417,0.3 0.3,19.418 0.3,43 c 0,0.408 0,41.277 0,41.277 0,0.786 0.637,1.423 1.423,1.423 h 82.553 c 0.786,0 1.423,-0.637 1.423,-1.423 0,0 0,-40.908 0,-41.277 C 85.7,19.418 66.583,0.3 43,0.3 z"
     id="path3977"
     style="fill:url(#linearGradient4770);fill-opacity:1" /><g
     id="layer1"><g
       style="fill:#e3da9b;fill-opacity:1"
       transform="matrix(1.1920394,0,0,1.1920394,-8.2576942,-14.220174)"
       id="g5132"><path
         id="path5024"
         d="m 56.236672,31.27742 -3.805506,0 c -0.180238,2.1879 -2.010646,3.90766 -4.246594,3.90766 -2.28,0 -10.369144,0 -10.369144,0 -2.235948,0 -4.067858,-1.72029 -4.247593,-3.90766 l -3.805509,0 c -1.604115,0 -2.904826,1.30016 -2.904826,2.90582 l 0,35.80713 c 0,1.60508 1.300711,2.90633 2.904826,2.90633 l 26.474346,0 c 1.604113,0 2.905828,-1.30125 2.905828,-2.90633 l 0,-35.80713 c -5e-4,-1.60566 -1.301715,-2.90582 -2.905828,-2.90582 z m -3.675839,24.18835 -19.12367,0 c -0.386512,0 -0.699927,-0.3145 -0.699927,-0.69995 0,-0.38753 0.313415,-0.70193 0.699927,-0.70193 l 19.12367,0 c 0.388516,0 0.700928,0.3144 0.700928,0.70193 0,0.38545 -0.312412,0.69995 -0.700928,0.69995 z m 0,-4.17653 -19.12367,0 c -0.386512,0 -0.699927,-0.31439 -0.699927,-0.70092 0,-0.38647 0.313415,-0.70094 0.699927,-0.70094 l 19.12367,0 c 0.388516,0 0.700928,0.31447 0.700928,0.70094 0,0.38653 -0.312412,0.70092 -0.700928,0.70092 z m 0,-4.17449 -19.12367,0 c -0.386512,0 -0.699927,-0.31439 -0.699927,-0.70091 0,-0.3885 0.313415,-0.70291 0.699927,-0.70291 l 19.12367,0 c 0.388516,0 0.700928,0.31388 0.700928,0.70291 0,0.38652 -0.312412,0.70091 -0.700928,0.70091 z m 0,-4.17651 -19.12367,0 c -0.386512,0 -0.699927,-0.31438 -0.699927,-0.7014 0,-0.38749 0.313419,-0.701107 0.699927,-0.70141 26.660047,-0.02093 11.745947,0.125116 19.12367,0 0.38844,-0.0066 0.700928,0.31337 0.700928,0.70141 0,0.38702 -0.312412,0.7014 -0.700928,0.7014 z"
         style="fill:#e3da9b;fill-opacity:1" /><path
         id="path5026"
         d="m 47.566261,26.58026 c -0.281377,0 -0.553726,0.0318 -0.819071,0.0906 -0.09814,-1.98519 -1.737292,-3.56373 -3.748445,-3.56373 -2.008648,0 -3.647799,1.57854 -3.747932,3.56322 -0.262851,-0.0587 -0.533704,-0.0901 -0.816573,-0.0901 -2.07373,0 -3.752944,1.68068 -3.752944,3.75242 0,2.07321 1.679214,3.75396 3.752944,3.75396 0,0 7.123377,0 9.132521,0 2.071228,0 3.751943,-1.68075 3.751943,-3.75396 0,-2.07174 -1.681215,-3.75242 -3.752443,-3.75242 z m -4.567516,2.45023 c -1.197575,0 -2.169353,-0.97136 -2.169353,-2.16988 0,-1.19958 0.971778,-2.17087 2.169353,-2.17087 1.199581,0 2.171864,0.97178 2.171864,2.17087 0,1.19852 -0.97178,2.16988 -2.171864,2.16988 z"
         style="fill:#e3da9b;fill-opacity:1" /></g><path
       id="path4153"
       d="m 35.680048,25.879864 c -1.5646,-0.724386 -2.468427,-2.189042 -2.468427,-4.000095 0,-2.478488 1.920244,-4.314384 4.512604,-4.314384 0.797775,0 0.817784,-0.01697 1.034362,-0.877077 0.276482,-1.09801 1.390265,-2.420744 2.439717,-2.897419 1.020683,-0.463609 2.552669,-0.465345 3.565555,-0.004 1.076057,0.490074 2.142929,1.727336 2.457133,2.849564 0.254505,0.909003 0.277095,0.928974 1.050787,0.928974 2.592652,0 4.495586,1.848615 4.485448,4.35741 -0.0074,1.83017 -0.991754,3.350518 -2.605854,4.024766 -0.613878,0.256432 -1.794985,0.305976 -7.207807,0.30235 -5.87956,-0.0039 -6.546108,-0.0379 -7.263518,-0.370047 z m 8.747659,-5.876166 c 2.185261,-1.38489 1.15937,-4.806527 -1.441115,-4.806527 -1.013751,0 -1.918347,0.556336 -2.336126,1.436742 -0.400109,0.843166 -0.413956,1.33769 -0.06082,2.172028 0.652376,1.54133 2.423681,2.094107 3.83806,1.197757 z"
       style="color:#000000;clip-rule:nonzero;display:inline;overflow:visible;visibility:visible;opacity:0.90399996;isolation:auto;mix-blend-mode:normal;color-interpolation:sRGB;color-interpolation-filters:linearRGB;solid-color:#000000;solid-opacity:1;fill:#edefd2;fill-opacity:1;fill-rule:nonzero;stroke:none;stroke-width:0.29621124;stroke-linecap:butt;stroke-linejoin:miter;stroke-miterlimit:4;stroke-dasharray:none;stroke-dashoffset:0;stroke-opacity:1;marker:none;color-rendering:auto;image-rendering:auto;shape-rendering:auto;text-rendering:auto;enable-background:accumulate" /></g></svg>